<svg width="3664" height="1191" xmlns="http://www.w3.org/2000/svg" xmlns:xlink="http://www.w3.org/1999/xlink" xml:space="preserve" overflow="hidden"><defs><clipPath id="clip0"><rect x="605" y="218" width="3664" height="1191"/></clipPath></defs><g clip-path="url(#clip0)" transform="translate(-605 -218)"><text font-family="Arial Narrow,Arial Narrow_MSFontService,sans-serif" font-weight="400" font-stretch="condensed" font-size="83" transform="matrix(1 0 0 1 654.899 325)">Модель системы <tspan font-size="83" x="57.5667" y="99">и база знаний</tspan><tspan font-size="83" x="57.7711" y="961">Новые</tspan><tspan font-size="83" x="287.511" y="961">знания</tspan><tspan font-size="83" x="1002.99" y="-1">Начальный СТАРТ</tspan><tspan font-size="83" x="1006.73" y="98">Генерация</tspan><tspan font-size="83" x="1363.66" y="98">гипоте</tspan><tspan font-size="83" x="1569.33" y="98">з</tspan><tspan font-size="83" x="2781.9" y="3">Генерация и дизайн </tspan><tspan font-size="83" x="2889.61" y="102">эксперимента</tspan><tspan font-size="83" x="2653.86" y="392">Выполнение экспериментов </tspan><tspan font-size="83" x="2767.3" y="491">автоматизированной </tspan><tspan font-size="83" x="2795.07" y="590">системой (роботом)</tspan><tspan font-size="83" x="2699.95" y="917">Сбор экспериментальных</tspan><tspan font-size="83" x="2673.02" y="1016">Наблюдений и</tspan><tspan font-size="83" x="3154.85" y="1016">метаданны</tspan><tspan font-size="83" x="3510.05" y="1016">х</tspan><tspan font-size="83" x="895.042" y="913">Сбор экспериментальных</tspan><tspan font-size="83" x="868.115" y="1012">Наблюдений и</tspan><tspan font-size="83" x="1349.94" y="1012">метаданны</tspan>х</text><path d="M2434.5 798C2434.5 570.182 2619.18 385.5 2847 385.5 3074.82 385.5 3259.5 570.182 3259.5 798 3259.5 1025.82 3074.82 1210.5 2847 1210.5 2619.18 1210.5 2434.5 1025.82 2434.5 798Z" stroke="#000000" stroke-width="4.58333" stroke-miterlimit="8" fill="#FFFFFF" fill-rule="evenodd"/><path d="M2517.43 1047.84 2489.37 1003.93 2491.3 1002.7 2519.36 1046.61ZM2481.22 1014.58 2478 984 2504.39 999.772Z"/><text font-family="Arial Narrow,Arial Narrow_MSFontService,sans-serif" font-weight="400" font-stretch="condensed" font-size="83" transform="matrix(1 0 0 1 2490.74 748)">Циклы автоматической <tspan font-size="83" x="56.7188" y="99">генерации гипотез и</tspan><tspan font-size="83" x="157.552" y="198">эксперимента</tspan></text><rect x="2403.5" y="651.5" width="87" height="332" stroke="#FFFFFF" stroke-width="4.58333" stroke-miterlimit="8" fill="#FFFFFF"/><path d="M0.00370743-1.14583 352.636-0.00485011 352.629 2.2868-0.00370743 1.14583ZM348.094-12.6238 375.549 1.21512 348.005 14.8761Z" transform="matrix(1 0 0 -1 1246 344.215)"/><path d="M2295 341.854 3377.24 345.259 3377.23 347.55 2295 344.146ZM3372.69 332.64 3400.15 346.477 3372.6 360.14Z"/><path d="M3765.15 463 3765.15 595.938 3762.86 595.938 3762.85 463ZM3777.75 591.354 3764 618.855 3750.25 591.355Z"/><path d="M1.14583-0.00188111 1.42399 169.431-0.867673 169.435-1.14583 0.00188111ZM14.0206 164.827 0.315781 192.35-13.4793 164.872Z" transform="matrix(-1 0 0 1 3763.32 953)"/><path d="M3289.92 1262.65 2453.91 1258.27 2453.92 1255.97 3289.93 1260.35ZM2458.43 1270.89 2431 1257 2458.57 1243.39Z"/><path d="M1485.81 1257.68 1218.91 1256.27 1218.92 1253.98 1485.82 1255.39ZM1223.43 1268.9 1196 1255 1223.57 1241.4Z"/><path d="M934.771 1188.64 930.977 483.924 933.269 483.912 937.062 1188.63ZM918.398 488.574 932 461 945.898 488.426Z"/><path d="M1956.9 1140.4 1956.86 482.917 1959.15 482.917 1959.19 1140.4ZM1944.25 487.501 1958 460 1971.75 487.499Z"/><text font-family="Arial Narrow,Arial Narrow_MSFontService,sans-serif" font-weight="400" font-stretch="condensed" font-size="83" transform="matrix(1 0 0 1 1025.54 781)">Обновление<tspan font-size="83" x="77.0689" y="99">модели</tspan></text></g></svg>